<svg preserveAspectRatio="xMidYMid meet" data-bbox="38.5 38.5 123 123" viewBox="38.5 38.5 123 123" height="200" width="200" xmlns="http://www.w3.org/2000/svg" data-type="color" role="img" aria-labelledby="comp-jr7k2xiz-svgtitle"><title id="comp-jr7k2xiz-svgtitle">Home</title>
    <g>
        <path d="M38.5 38.5v123h123v-123h-123zm119.676 119.676H41.824V41.824h116.351v116.352z" fill="#4A4A4A" data-color="1"></path>
        <path fill="#4A4A4A" d="M103.984 70.579v3.324H65.926v-3.324h38.058z" data-color="1"></path>
        <path fill="#4A4A4A" d="M97.641 80.22v3.324H65.926V80.22h31.715z" data-color="1"></path>
        <path fill="#4A4A4A" d="M84.955 89.861v3.324H65.926v-3.324h19.029z" data-color="1"></path>
        <path fill="#4A4A4A" d="M75.44 99.502v3.324h-9.514v-3.324h9.514z" data-color="1"></path>
        <path d="M103.159 121.776a3.324 3.324 0 1 0 0 6.647 3.324 3.324 0 0 0 0-6.647z" fill="#4A4A4A" data-color="1"></path>
        <path d="M116.457 121.776a3.324 3.324 0 1 0 0 6.647 3.324 3.324 0 0 0 0-6.647z" fill="#4A4A4A" data-color="1"></path>
        <path d="M129.754 128.425a3.324 3.324 0 1 0 0-6.647 3.324 3.324 0 0 0 0 6.647z" fill="#4A4A4A" data-color="1"></path>
        <path d="M116.457 108.479a3.324 3.324 0 1 0 0 6.647 3.324 3.324 0 0 0 0-6.647z" fill="#4A4A4A" data-color="1"></path>
        <path d="M129.754 115.128a3.324 3.324 0 1 0 0-6.647 3.324 3.324 0 0 0 0 6.647z" fill="#4A4A4A" data-color="1"></path>
        <path d="M129.754 101.83a3.324 3.324 0 1 0 0-6.647 3.324 3.324 0 0 0 0 6.647z" fill="#4A4A4A" data-color="1"></path>
        <path fill="#4A4A4A" d="M122.68 76.142l1.176 1.176-46.54 46.54-1.175-1.174 46.54-46.542z" data-color="1"></path>
    </g>
</svg>